<svg width="17" height="18" viewBox="0 0 17 18" fill="none" xmlns="http://www.w3.org/2000/svg">
  <path d="M7.80074 0.606627C8.0406 0.47337 8.16053 0.406742 8.28754 0.380621C8.39995 0.357501 8.51589 0.357501 8.6283 0.380621C8.75531 0.406742 8.87524 0.47337 9.1151 0.606627L15.3737 4.08364C15.6271 4.22438 15.7537 4.29475 15.846 4.39483C15.9275 4.48337 15.9893 4.58832 16.0271 4.70265C16.0698 4.83188 16.0698 4.97677 16.0698 5.26657V12.1317C16.0698 12.4215 16.0698 12.5664 16.0271 12.6956C15.9893 12.8099 15.9275 12.9149 15.846 13.0034C15.7537 13.1035 15.6271 13.1739 15.3737 13.3146L9.1151 16.7916C8.87524 16.9249 8.75531 16.9915 8.6283 17.0176C8.51589 17.0408 8.39995 17.0408 8.28754 17.0176C8.16053 16.9915 8.0406 16.9249 7.80074 16.7916L1.54211 13.3146C1.28879 13.1739 1.16213 13.1035 1.06989 13.0034C0.988298 12.9149 0.926549 12.8099 0.888775 12.6956C0.846077 12.5664 0.846077 12.4215 0.846077 12.1317V5.26657C0.846077 4.97677 0.846077 4.83188 0.888775 4.70265C0.926549 4.58832 0.988298 4.48337 1.06989 4.39483C1.16213 4.29475 1.28879 4.22438 1.54211 4.08364L7.80074 0.606627Z" fill="#F5C143" stroke="#000" stroke-width="1.5"/>
</svg>
