<svg width="209" height="170" viewBox="0 0 209 170" fill="none" xmlns="http://www.w3.org/2000/svg">
<path d="M159.43 103.661C154.623 114.404 145.56 117.795 136.291 120.802C129.53 122.955 122.681 125.402 115.832 127.849C110.431 129.766 107.175 128.798 104.465 123.827C101.877 119.533 102.511 115.237 106.992 112.086C108.317 110.878 109.94 109.759 111.681 109.316C121.422 105.808 131.25 102.004 141.322 99.555C147.405 97.5215 153.881 98.4871 159.43 103.661Z" fill="#312070" fill-opacity="0.5"/>
<path d="M149.231 42.6494C151.237 41.3243 153.242 39.9993 155.455 39.0557C162.862 35.8139 170.566 32.6606 178.181 29.8001C188.393 25.7911 199.055 23.5175 210.115 24.245C211.977 24.4796 213.578 25.5948 215.265 26.4185C214.445 28.096 214.04 30.5383 212.507 31.3625C206.963 34.8389 201.212 37.9318 195.458 41.0264C192.772 42.4708 189.759 42.8548 187.371 44.3855C179.229 49.0104 170.19 50.1646 161.116 50.3475C154.582 50.6472 153.192 49.9138 149.231 42.6494Z" fill="#312070" fill-opacity="0.5"/>
<path d="M223.376 74.9562C222.521 75.6626 221.23 77.8415 219.015 78.7845C214.117 81.1705 209.22 83.5588 204.114 85.5639C199.303 87.6564 194.284 89.3676 189.353 90.783C184.127 92.1107 178.691 93.0564 173.222 93.0313C171.272 93.0923 168.662 91.0334 167.237 89.3291C165.689 86.9472 167.575 84.9453 169.58 83.6204C174.061 80.4691 178.125 76.5522 183.231 74.5477C192.085 70.7758 201.651 67.8545 210.922 64.8479C213.047 64.1998 215.383 63.9317 217.628 63.9605C222.835 64.8659 225.127 69.0713 223.376 74.9562Z" fill="#312070" fill-opacity="0.5"/>
<path d="M151.458 -0.571832C155.306 0.572869 157.269 3.71951 156.186 6.27975C154.543 9.63419 152.517 13.1963 149.571 15.5242C140.553 23.093 129.333 26.161 117.575 27.7864C114.176 28.3775 111.864 26.407 110.406 23.7321C108.946 21.0546 111.039 19.4361 112.749 18.0234C121.469 10.3661 130.936 4.53546 141.86 1.37951C145.518 -0.0975972 149.123 -0.305804 151.458 -0.571832Z" fill="#312070" fill-opacity="0.5"/>
<path d="M7.97838 123.311C22.2547 115.386 36.8947 109.492 51.8959 105.624C52.9589 105.299 54.0212 104.976 55.2941 105.033C58.517 105.031 59.9424 106.736 58.6821 109.884C54.2931 121.39 45.1227 127.312 34.0208 131.056C33.7256 130.969 33.6383 131.262 33.341 131.174C27.314 131.946 13.4045 127.808 7.97838 123.311Z" fill="#312070" fill-opacity="0.5"/>
<path d="M16.2666 80.2915C30.2152 71.3073 43.2855 65.2661 58.0908 64.2251C59.4489 63.9878 60.7212 64.0468 62.2886 64.1935C64.5365 64.221 65.7521 65.5434 65.4362 67.6927C63.7727 73.2845 61.9021 78.4926 56.236 81.2915C54.318 82.323 51.8976 82.8833 50.1875 84.2961C42.4628 89.6863 34.0345 88.7789 26.0455 86.4023C22.58 85.0519 20.06 82.7002 16.2666 80.2915Z" fill="#312070" fill-opacity="0.5"/>
<path d="M39.4512 44.5864C41.927 42.76 43.8123 40.7581 46.2001 39.2273C59.0307 31.8319 72.7288 26.9385 87.0842 24.1613C89.8019 23.6895 93.0232 23.6848 95.7757 24.1841C99.1185 24.859 100.193 27.7416 97.5431 30.155C95.3625 32.0691 92.8867 33.8954 90.2037 35.3384C79.8488 40.9072 68.4186 43.5935 57.1986 46.6616C55.7532 47.1924 53.8884 46.9572 52.6503 47.8714C48.1324 50.051 43.9895 48.8186 39.4507 44.586L39.4512 44.5864Z" fill="#312070" fill-opacity="0.5"/>
<path d="M158.12 139.467C158.712 139.644 159.687 139.614 160.192 140.084C161.497 141.113 162.506 142.052 163.602 142.7C162.66 143.7 161.839 145.38 160.689 145.999C155.495 148.297 150.389 150.301 145.108 152.895C138.764 155.812 132.628 159.112 126.196 162.324C124.278 163.355 122.36 164.387 120.147 165.328C116.104 167.008 113.736 166.304 111.685 163.452C109.218 159.836 109.556 155.452 112.502 153.125C115.45 150.798 118.988 148.649 122.56 147.468C131.534 144.373 140.804 141.364 149.9 138.944C152.323 138.384 155.074 138.881 157.912 139.084C158.295 138.878 158.208 139.172 158.12 139.467Z" fill="#312070" fill-opacity="0.5"/>
<path d="M95.3159 -17.5935C95.2953 -15.3563 95.953 -13.2392 95.0106 -12.2392C89.5991 -4.8801 84.2772 2.18592 75.1278 5.86994C68.5763 8.40532 61.8352 8.32142 55.0617 7.26738C53.199 7.03277 51.1811 5.15218 49.7564 3.44581C47.1139 0.416409 47.4312 -1.73024 51.1772 -3.49828C60.9725 -8.27258 70.7689 -13.0448 81.8492 -14.5546C86.2217 -15.1732 90.1774 -16.5592 95.3164 -17.593L95.3159 -17.5935Z" fill="#312070" fill-opacity="0.5"/>
<path d="M83.4047 82.0056C98.6678 77.258 113.254 72.6259 127.752 68.2918C130.174 67.7322 133.537 66.1699 135.205 69.2287C136.664 71.9062 134.604 74.4952 132.721 76.4978C122.653 87.5974 110.853 93.6966 95.3228 90.6766C89.524 89.5928 88.7228 89.0328 83.4047 82.0056Z" fill="#312070" fill-opacity="0.5"/>
<path d="M159.653 -6.46226C172.317 -18.711 186.715 -25.9593 203.766 -26.9735C209.031 -18.6796 207.751 -13.2957 199.159 -10.4067C189.505 -7.19217 179.522 -5.03604 169.45 -2.58748C165.672 -1.78997 163.689 -2.699 159.653 -6.46226Z" fill="#312070" fill-opacity="0.5"/>
<path d="M184.988 176.93C183.388 175.812 181.403 174.902 179.977 173.196C175.404 167.992 175.687 164.872 182.033 161.956C188.672 159.127 195.731 157.062 202.613 155.586C205.035 155.026 208.411 156.669 210.428 158.552C213.334 160.697 211.691 164.053 209.895 165.76C203.739 171.295 196.572 175.891 188.035 177.516C187.355 177.634 186.468 177.37 184.987 176.929L184.988 176.93Z" fill="#312070" fill-opacity="0.5"/>
<path d="M219.636 116.767C213.274 130.57 199.916 131.081 188.519 134.738C186.709 133.239 185.109 132.121 183.09 130.241C184.208 128.652 185.324 127.062 186.739 125.561C193.927 118.726 211.821 113.8 219.636 116.767Z" fill="#312070" fill-opacity="0.5"/>
<path d="M55.0916 144.694C62.1032 138.452 69.9804 134.71 77.6516 130.586C80.2494 129.437 88.0981 133.374 89.2608 135.961C90.2158 138.167 89.898 140.315 87.3902 141.169C79.3912 144.235 71.929 148.742 62.8548 148.925C60.2243 149.103 57.6469 148.017 55.0916 144.694Z" fill="#312070" fill-opacity="0.5"/>
</svg>
