<svg width="209" height="170" viewBox="0 0 209 170" fill="none" xmlns="http://www.w3.org/2000/svg">
<path d="M104.911 63.4397C111.401 62.0828 117.278 63.7453 123.156 65.4094C133.83 67.8815 144.358 70.7631 153.72 76.9279C154.671 77.5029 155.621 78.0788 156.572 78.6539C161.18 81.942 162.366 84.4545 161.068 87.4587C159.901 90.7414 155.022 94.0697 151.192 93.1462C135.722 89.8661 119.537 87.947 108.254 74.835C105.152 71.8623 102.882 68.4942 104.911 63.4402L104.911 63.4397Z" fill="#312070" fill-opacity="0.5"/>
<path d="M8.61047 86.715C10.9353 87.325 13.2601 87.9351 15.4395 88.9544C22.7953 92.3096 30.2837 95.9456 37.4943 99.7103C47.2935 104.644 56.0997 111.071 62.9354 119.795C64.0031 121.339 64.2401 123.276 64.7521 125.082C62.9551 125.59 60.8653 126.917 59.2288 126.325C52.9406 124.514 46.8001 122.293 40.656 120.07C37.7883 119.033 35.4924 117.045 32.7593 116.287C23.8825 113.306 16.9927 107.342 10.8032 100.704C6.22151 96.0364 5.84024 94.5112 8.61047 86.715Z" fill="#312070" fill-opacity="0.5"/>
<path d="M34.0026 163.503C32.9059 163.337 30.4216 163.829 28.2413 162.808C23.1963 160.75 18.1503 158.695 13.2505 156.229C8.48237 154.041 3.85958 151.443 -0.484237 148.714C-4.95956 145.706 -9.29026 142.288 -12.9198 138.197C-14.2665 136.784 -14.4735 133.466 -14.1546 131.268C-13.4124 128.526 -10.6633 128.595 -8.33859 129.205C-3.00167 130.441 2.62721 130.856 7.52679 133.323C16.2431 137.403 24.8004 142.58 33.2249 147.482C35.1254 148.633 36.8833 150.194 38.3595 151.886C41.1583 156.369 39.5546 160.882 34.0026 163.503Z" fill="#312070" fill-opacity="0.5"/>
<path d="M176.403 178.899C173.377 178.962 169.927 179.565 167.192 178.808C158.579 176.386 149.834 173.687 141.964 168.526C138.98 166.52 135.149 165.599 132.02 164.002C128.348 161.979 125.233 159.695 121.986 157.131C119.69 155.142 119.745 152.385 121.161 150.348C122.286 149.134 124.771 148.644 126.553 148.827C130.253 149.471 133.526 150.655 137.081 151.708C150.038 156.859 162.995 162.009 175.675 167.29C178.131 168.179 180.311 169.198 180.109 172.368C180.054 175.126 179.456 177.457 176.403 178.899Z" fill="#312070" fill-opacity="0.5"/>
<path d="M42.2952 59.542C44.0093 63.1723 42.9742 66.7333 40.3447 67.6347C36.7498 68.6485 32.7446 69.5154 29.0449 68.8733C17.3908 67.2043 7.62058 60.8922 -1.43436 53.2162C-4.14161 51.0789 -4.21633 48.0415 -3.19626 45.1709C-2.17518 42.2975 0.426538 42.7768 2.61977 43.1083C14.1413 44.4967 24.8003 47.66 34.439 53.6934C37.979 55.4326 40.5392 57.9797 42.2952 59.542Z" fill="#312070" fill-opacity="0.5"/>
<path d="M84.896 108.06C87.4997 108.538 89.8375 108.458 92.017 109.477C103.746 114.184 115.198 119.021 125.363 126.17C127.396 127.601 129.285 129.439 131.04 131.001C133.732 133.827 132.713 136.7 128.854 137.155C117.701 137.981 106.443 137.152 97.5336 129.066C94.0226 125.943 90.4965 123.511 86.9854 120.389C83.7512 117.136 82.591 113.245 84.896 108.06Z" fill="#312070" fill-opacity="0.5"/>
<path d="M81.1632 210.892C79.1351 215.946 76.138 214.629 73.8138 214.021C68.6223 212.376 63.5773 210.319 58.5321 208.261C47.9001 203.721 37.4129 198.769 26.9281 193.819C23.929 192.503 22.0415 190.662 21.8352 187.346C21.6262 184.029 22.6352 181.848 26.3478 181.8C29.3729 181.736 32.3859 182.364 34.8423 183.253C48.2232 187.863 60.45 195.063 71.6865 203.758C74.6679 205.763 77.9151 208.326 81.1632 210.892Z" fill="#312070" fill-opacity="0.5"/>
<path d="M17.2721 -28.6892C27.6074 -29.8131 43.5323 -21.9676 60.4315 -7.75059C59.5419 -4.59863 57.5865 -2.99179 54.1212 -1.69858C47.7494 0.626384 41.4192 0.88338 35.1598 -2.30631C31.7522 -3.7699 28.768 -5.77655 26.6307 -8.8636C24.4932 -11.951 22.2103 -14.6292 20.0718 -17.7188C18.0696 -20.5295 16.0774 -24.0265 17.2721 -28.6892Z" fill="#312070" fill-opacity="0.5"/>
<path d="M17.5247 6.36173C15.8443 7.83875 14.7058 9.74109 13.3322 9.70608C4.23987 10.5837 -4.57435 11.3325 -13.4223 6.97386C-19.6815 3.78432 -24.1158 -1.29368 -27.849 -7.04296C-28.9168 -8.58714 -28.8619 -11.3449 -28.541 -13.5446C-28.0469 -17.5341 -26.236 -18.7297 -22.42 -17.1184C-12.329 -13.0059 -2.23871 -8.89112 6.27742 -1.64359C9.65506 1.20122 13.3264 3.22359 17.5247 6.36246L17.5247 6.36173Z" fill="#312070" fill-opacity="0.5"/>
<path d="M52.1502 61.7179C69.723 62.9813 84.7275 68.8725 96.8576 80.8988C94.1905 90.3536 89.3258 92.9914 81.4422 88.518C72.6071 83.4698 64.3418 77.4715 55.7988 71.6012C52.6841 69.3182 52.0384 67.2345 52.1502 61.7179Z" fill="#312070" fill-opacity="0.5"/>
<path d="M148.08 111.006C150.405 111.616 152.745 111.535 154.922 112.555C165.277 117.227 175.631 121.898 185.985 126.57C187.622 127.162 189.393 128.033 190.608 129.167C194.675 132.027 195.438 135.082 193.585 138.346C191.309 142.153 186.31 144.513 182.493 142.9C180.857 142.308 179.086 141.436 177.594 140.433C168.919 134.285 160.245 128.136 151.571 121.991C147.238 118.573 147.107 118.294 148.08 111.006L148.08 111.006Z" fill="#312070" fill-opacity="0.5"/>
<path d="M90.491 42.2489C89.7488 44.9907 88.0675 46.4657 85.0425 46.5292C73.758 47.0772 62.8054 44.7366 53.4583 37.8814C48.3087 34.1679 44.3116 27.8591 49.5253 21.6414C59.7898 23.9641 78.8453 33.404 90.4916 42.2485L90.491 42.2489Z" fill="#312070" fill-opacity="0.5"/>
<path d="M58.9488 140.115C60.6013 140.019 62.1213 139.641 63.3495 140.086C67.5898 141.156 71.8298 142.227 75.3702 143.971C82.4491 147.457 89.6607 151.223 96.4605 154.841C99.7236 156.716 101.013 160.887 99.4374 164.02C98.1524 166.334 94.8365 167.217 91.4287 165.753C81.6163 161.509 72.0803 157.133 62.4132 152.48C57.922 150.161 56.1949 147.22 57.3753 143.25C57.8098 142.018 58.38 141.067 58.9488 140.115Z" fill="#312070" fill-opacity="0.5"/>
<path d="M84.5437 -17.0872C88.0967 -16.0329 91.1088 -15.4068 93.829 -13.9594C103.76 -8.74739 113.267 -2.99245 122.922 2.35246C124.691 3.22494 126.169 4.91596 127.239 6.45913C128.175 7.7248 128.543 9.93976 128.106 11.1704C127.946 12.2703 125.724 13.3191 124.351 13.2841C120.373 12.7707 116.12 12.39 112.726 10.2368C104.842 5.76368 97.5279 0.339914 90.2137 -5.08373C86.8182 -7.23413 83.3071 -10.3565 84.5435 -17.0877L84.5437 -17.0872Z" fill="#312070" fill-opacity="0.5"/>
<path d="M148.678 47.5545C148.344 50.444 146.548 50.9519 143.946 50.4726C135.861 49.1692 128.054 47.7321 119.969 46.429C115.583 45.7678 112.613 43.0737 109.787 39.9685C105.893 35.3187 105.819 32.2815 109.101 26.2921C117.2 26.9076 134.474 36.165 148.679 47.5549L148.678 47.5545Z" fill="#312070" fill-opacity="0.5"/>
<path d="M77.6072 176.036C86.262 176.389 94.1866 178.792 101.411 181.869C104 183.038 106.867 184.073 109.308 185.652C111.077 186.525 112.834 188.084 113.625 189.759C114.271 191.845 114.756 195.029 113.896 196.803C112.465 199.527 109.6 198.49 107.289 197.191C103.34 195.299 99.2604 193.128 95.1776 190.957C90.9652 188.506 86.4747 186.189 82.2625 183.738C80.097 182.031 76.2672 181.108 77.6072 176.036Z" fill="#312070" fill-opacity="0.5"/>
<path d="M0.359496 188.608C-14.1682 193.076 -23.4594 183.465 -33.7868 177.414C-33.8774 175.065 -34.1124 173.128 -34.0576 170.37C-32.1281 170.142 -30.1997 169.913 -28.1379 169.966C-18.2508 170.761 -2.64444 180.806 0.359496 188.608Z" fill="#312070" fill-opacity="0.5"/>
</svg>
